# xmcd
#
# Track frame offsets:
# 150
# 14322
# 34470
# 51532
# 69822
# 83890
# 102657
# 124080
# 144885
# 162307
# 180950
# 199492
# 218495
#
# Disc length: 2999 seconds
#
#
# Revision: 0
# Processed by: cddbd v1.5.2PL0 Copyright (c) Steve Scherf et al.
# Submitted via: FreeRIP 2.945 
#
DISCID=b50bb50d
DTITLE=Sandra De Sá - Eu Sempre Fui Sincero, Você Sabe Muito Bem
DYEAR=1998
DGENRE=Pop
TTITLE0=Batata Frita, O Ladrão De Bicicleta
TTITLE1=Azul Da Cor Do Mar
TTITLE2=Sossego
TTITLE3=Pudera
TTITLE4=Razão De Sambar
TTITLE5=Ga-Gaguejando
TTITLE6=Eu Amo Você
TTITLE7=A Festa Do Santo Reis
TTITLE8=Kruell
TTITLE9=Bons Momentos
TTITLE10=Vê Se Decide
TTITLE11=Telefone
TTITLE12=Flamengo
EXTD=
EXTT0=
EXTT1=
EXTT2=
EXTT3=
EXTT4=
EXTT5=
EXTT6=
EXTT7=
EXTT8=
EXTT9=
EXTT10=
EXTT11=
EXTT12=
PLAYORDER=
